<svg width="15" height="17" viewBox="0 0 15 17" fill="none" xmlns="http://www.w3.org/2000/svg">
<path d="M1.92243 16.0833C1.50149 16.0833 1.14518 15.9375 0.853516 15.6458C0.561849 15.3541 0.416016 14.9978 0.416016 14.5769V3.42308C0.416016 3.00214 0.561849 2.64583 0.853516 2.35417C1.14518 2.0625 1.50149 1.91667 1.92243 1.91667H5.63077C5.697 1.44872 5.90373 1.05396 6.25095 0.732376C6.59816 0.410793 7.01429 0.25 7.49933 0.25C7.98437 0.25 8.4005 0.410793 8.7477 0.732376C9.09493 1.05396 9.30165 1.44872 9.36789 1.91667H13.0762C13.4972 1.91667 13.8535 2.0625 14.1451 2.35417C14.4368 2.64583 14.5826 3.00214 14.5826 3.42308V14.5769C14.5826 14.9978 14.4368 15.3541 14.1451 15.6458C13.8535 15.9375 13.4972 16.0833 13.0762 16.0833H1.92243ZM7.49933 2.62177C7.67988 2.62177 7.82919 2.56274 7.94725 2.44469C8.0653 2.32663 8.12433 2.17733 8.12433 1.99677C8.12433 1.81622 8.0653 1.66691 7.94725 1.54885C7.82919 1.4308 7.67988 1.37177 7.49933 1.37177C7.31877 1.37177 7.16947 1.4308 7.05141 1.54885C6.93336 1.66691 6.87433 1.81622 6.87433 1.99677C6.87433 2.17733 6.93336 2.32663 7.05141 2.44469C7.16947 2.56274 7.31877 2.62177 7.49933 2.62177ZM1.66599 14.0353C2.41599 13.2991 3.28752 12.7193 4.28058 12.2957C5.27363 11.8721 6.34655 11.6603 7.49933 11.6603C8.65211 11.6603 9.72502 11.8721 10.7181 12.2957C11.7111 12.7193 12.5827 13.2991 13.3327 14.0353V3.42308C13.3327 3.35897 13.306 3.3002 13.2525 3.24677C13.1991 3.19335 13.1403 3.16665 13.0762 3.16665H1.92243C1.85832 3.16665 1.79955 3.19335 1.74612 3.24677C1.6927 3.3002 1.66599 3.35897 1.66599 3.42308V14.0353ZM7.49933 9.86538C8.25147 9.86538 8.89088 9.60202 9.41758 9.07531C9.94429 8.5486 10.2076 7.90918 10.2076 7.15704C10.2076 6.40492 9.94429 5.7655 9.41758 5.23879C8.89088 4.71208 8.25147 4.44873 7.49933 4.44873C6.74719 4.44873 6.10777 4.71208 5.58108 5.23879C5.05437 5.7655 4.79102 6.40492 4.79102 7.15704C4.79102 7.90918 5.05437 8.5486 5.58108 9.07531C6.10777 9.60202 6.74719 9.86538 7.49933 9.86538ZM2.86789 14.8333H12.1308V14.657C11.4726 14.0694 10.7507 13.6314 9.96489 13.3429C9.1791 13.0544 8.35725 12.9102 7.49933 12.9102C6.65211 12.9102 5.83426 13.0531 5.04579 13.3389C4.25731 13.6247 3.53135 14.0587 2.86789 14.641V14.8333ZM7.49933 8.6154C7.09869 8.6154 6.75547 8.4725 6.46966 8.18671C6.18387 7.90092 6.04097 7.5577 6.04097 7.15704C6.04097 6.7564 6.18387 6.41319 6.46966 6.1274C6.75547 5.84161 7.09869 5.69871 7.49933 5.69871C7.89997 5.69871 8.24319 5.84161 8.529 6.1274C8.81479 6.41319 8.95768 6.7564 8.95768 7.15704C8.95768 7.5577 8.81479 7.90092 8.529 8.18671C8.24319 8.4725 7.89997 8.6154 7.49933 8.6154Z" fill="#042757"/>
</svg>
