<svg width="14" height="14" viewBox="0 0 14 14" fill="none" xmlns="http://www.w3.org/2000/svg">
<path d="M6.99261 10.7435C7.18297 10.7435 7.34374 10.6778 7.47494 10.5464C7.60613 10.4149 7.67173 10.254 7.67173 10.0637C7.67173 9.87332 7.60601 9.71255 7.47458 9.58136C7.34314 9.45016 7.18225 9.38456 6.99189 9.38456C6.80154 9.38456 6.64077 9.45028 6.50958 9.58171C6.37838 9.71314 6.31278 9.87404 6.31278 10.0644C6.31278 10.2548 6.37849 10.4155 6.50993 10.5467C6.64136 10.6779 6.80225 10.7435 6.99261 10.7435ZM6.52046 8.35634H7.45891C7.46745 8.02814 7.51553 7.76597 7.60314 7.56981C7.69074 7.37367 7.90335 7.11363 8.24096 6.78969C8.53412 6.49653 8.75869 6.2258 8.91468 5.97751C9.07065 5.72922 9.14864 5.43601 9.14864 5.09786C9.14864 4.52405 8.94245 4.07582 8.53008 3.75316C8.11769 3.43052 7.62987 3.26919 7.06661 3.26919C6.51021 3.26919 6.04974 3.4177 5.68521 3.71471C5.32069 4.01171 5.06065 4.36149 4.90509 4.76404L5.76148 5.10763C5.84268 4.88626 5.98157 4.67067 6.17814 4.46084C6.37473 4.25101 6.66662 4.14609 7.05379 4.14609C7.44782 4.14609 7.73905 4.254 7.92751 4.46983C8.11598 4.68564 8.21021 4.92303 8.21021 5.18201C8.21021 5.4085 8.14568 5.61576 8.01661 5.80379C7.88755 5.99183 7.72303 6.17346 7.52303 6.34868C7.08543 6.74354 6.80893 7.0585 6.69354 7.29354C6.57815 7.52859 6.52046 7.88286 6.52046 8.35634ZM7.00106 13.3333C6.1251 13.3333 5.30175 13.167 4.53099 12.8346C3.76023 12.5022 3.08977 12.051 2.51963 11.4811C1.94947 10.9112 1.4981 10.241 1.16551 9.47061C0.832921 8.7002 0.666626 7.87702 0.666626 7.00106C0.666626 6.1251 0.832848 5.30175 1.16529 4.53099C1.49774 3.76023 1.9489 3.08977 2.51879 2.51963C3.08869 1.94947 3.75885 1.4981 4.52928 1.16551C5.29969 0.832921 6.12287 0.666626 6.99883 0.666626C7.87478 0.666626 8.69814 0.832849 9.46889 1.16529C10.2397 1.49774 10.9101 1.9489 11.4803 2.51879C12.0504 3.08869 12.5018 3.75885 12.8344 4.52928C13.167 5.29969 13.3333 6.12287 13.3333 6.99883C13.3333 7.87478 13.167 8.69814 12.8346 9.46889C12.5022 10.2397 12.051 10.9101 11.4811 11.4803C10.9112 12.0504 10.241 12.5018 9.47061 12.8344C8.7002 13.167 7.87702 13.3333 7.00106 13.3333Z" fill="#042757"/>
</svg>
