<svg width="21" height="20" viewBox="0 0 21 20" fill="none" xmlns="http://www.w3.org/2000/svg">
<path d="M4.92243 17.0836C4.50149 17.0836 4.14518 16.9378 3.85352 16.6461C3.56185 16.3545 3.41602 15.9981 3.41602 15.5772V4.42341C3.41602 4.00247 3.56185 3.64616 3.85352 3.35449C4.14518 3.06283 4.50149 2.91699 4.92243 2.91699H10.5073V4.16697H4.92243C4.85832 4.16697 4.79955 4.19368 4.74612 4.2471C4.6927 4.30053 4.66599 4.3593 4.66599 4.42341V15.5772C4.66599 15.6413 4.6927 15.7001 4.74612 15.7535C4.79955 15.8069 4.85832 15.8336 4.92243 15.8336H10.5073V17.0836H4.92243ZM14.025 13.558L13.1596 12.6541L15.1885 10.6253H8.07945V9.37533H15.1885L13.1596 7.34647L14.025 6.44266L17.5826 10.0003L14.025 13.558Z" fill="#042757"/>
</svg>
