<svg width="40" height="40" viewBox="0 0 40 40" fill="none" xmlns="http://www.w3.org/2000/svg">
<g clip-path="url(#clip0_40000652_8510)">
<path d="M20 24.7307C20.2288 24.7307 20.4207 24.6533 20.5755 24.4985C20.7303 24.3437 20.8077 24.1519 20.8077 23.9231C20.8077 23.6942 20.7303 23.5024 20.5755 23.3476C20.4207 23.1928 20.2288 23.1154 20 23.1154C19.7711 23.1154 19.5793 23.1928 19.4245 23.3476C19.2697 23.5024 19.1923 23.6942 19.1923 23.9231C19.1923 24.1519 19.2697 24.3437 19.4245 24.4985C19.5793 24.6533 19.7711 24.7307 20 24.7307ZM19.25 21.0769H20.75V15.0769H19.25V21.0769ZM20.0016 29.5C18.6877 29.5 17.4527 29.2506 16.2966 28.752C15.1404 28.2533 14.1347 27.5765 13.2795 26.7217C12.4243 25.8669 11.7472 24.8616 11.2483 23.706C10.7494 22.5504 10.5 21.3156 10.5 20.0017C10.5 18.6877 10.7493 17.4527 11.248 16.2966C11.7467 15.1404 12.4234 14.1347 13.2783 13.2795C14.1331 12.4243 15.1383 11.7472 16.294 11.2483C17.4496 10.7494 18.6844 10.5 19.9983 10.5C21.3122 10.5 22.5473 10.7493 23.7034 11.248C24.8596 11.7467 25.8652 12.4234 26.7205 13.2783C27.5757 14.1331 28.2527 15.1383 28.7516 16.294C29.2505 17.4496 29.5 18.6844 29.5 19.9983C29.5 21.3122 29.2506 22.5473 28.752 23.7034C28.2533 24.8596 27.5765 25.8652 26.7217 26.7205C25.8669 27.5757 24.8616 28.2527 23.706 28.7516C22.5504 29.2505 21.3156 29.5 20.0016 29.5ZM20 28C22.2333 28 24.125 27.225 25.675 25.675C27.225 24.125 28 22.2333 28 20C28 17.7666 27.225 15.875 25.675 14.325C24.125 12.775 22.2333 12 20 12C17.7666 12 15.875 12.775 14.325 14.325C12.775 15.875 12 17.7666 12 20C12 22.2333 12.775 24.125 14.325 25.675C15.875 27.225 17.7666 28 20 28Z" fill="#B70100"/>
</g>
<defs>
<clipPath id="clip0_40000652_8510">
<rect width="40" height="40" rx="20" fill="white"/>
</clipPath>
</defs>
</svg>
