<svg width="20" height="20" viewBox="0 0 20 20" fill="none" xmlns="http://www.w3.org/2000/svg">
<path d="M9.37565 13.9583H10.6256V10.625H13.9589V9.37504H10.6256V6.04171H9.37565V9.37504H6.04232V10.625H9.37565V13.9583ZM10.002 17.9167C8.90708 17.9167 7.87789 17.7089 6.91444 17.2933C5.95098 16.8778 5.11292 16.3138 4.40023 15.6015C3.68754 14.8891 3.12332 14.0514 2.70759 13.0884C2.29185 12.1253 2.08398 11.0964 2.08398 10.0014C2.08398 8.90647 2.29176 7.87728 2.70732 6.91383C3.12287 5.95037 3.68683 5.11231 4.39919 4.39963C5.11157 3.68693 5.94927 3.12272 6.9123 2.70698C7.87531 2.29124 8.90429 2.08337 9.99923 2.08337C11.0942 2.08337 12.1234 2.29115 13.0868 2.70671C14.0503 3.12226 14.8883 3.68622 15.601 4.39858C16.3137 5.11096 16.8779 5.94866 17.2937 6.91169C17.7094 7.8747 17.9173 8.90368 17.9173 9.99863C17.9173 11.0936 17.7095 12.1228 17.2939 13.0862C16.8784 14.0497 16.3144 14.8877 15.6021 15.6004C14.8897 16.3131 14.052 16.8773 13.089 17.2931C12.1259 17.7088 11.097 17.9167 10.002 17.9167ZM10.0006 16.6667C11.8617 16.6667 13.4381 16.0209 14.7298 14.7292C16.0215 13.4375 16.6673 11.8611 16.6673 10C16.6673 8.13891 16.0215 6.56252 14.7298 5.27085C13.4381 3.97919 11.8617 3.33335 10.0006 3.33335C8.13952 3.33335 6.56313 3.97919 5.27146 5.27085C3.9798 6.56252 3.33396 8.13891 3.33396 10C3.33396 11.8611 3.9798 13.4375 5.27146 14.7292C6.56313 16.0209 8.13952 16.6667 10.0006 16.6667Z" fill="white"/>
</svg>
