<svg width="20" height="20" viewBox="0 0 20 20" fill="none" xmlns="http://www.w3.org/2000/svg">
<path d="M3.74219 19.3672C2.96615 18.388 2.3099 17.2422 1.77344 15.9297C1.23698 14.6172 0.96875 13.2578 0.96875 11.8516C0.96875 10.612 1.16927 9.42448 1.57031 8.28906C2.03906 6.97135 2.76302 5.65885 3.74219 4.35156H4.75C4.11979 5.4349 3.70312 6.20833 3.5 6.67188C3.18229 7.39062 2.93229 8.14062 2.75 8.92188C2.52604 9.89583 2.41406 10.875 2.41406 11.8594C2.41406 14.3646 3.19271 16.8672 4.75 19.3672H3.74219ZM9.3125 17.6484V16.2422C8.60938 16.1536 8.03646 15.9974 7.59375 15.7734C7.15625 15.5443 6.77604 15.1771 6.45312 14.6719C6.13542 14.1667 5.95052 13.5495 5.89844 12.8203L7.3125 12.5547C7.42188 13.3099 7.61458 13.8646 7.89062 14.2188C8.28646 14.7188 8.76042 14.9974 9.3125 15.0547V10.5781C8.73438 10.4688 8.14323 10.2448 7.53906 9.90625C7.09115 9.65625 6.74479 9.3099 6.5 8.86719C6.26042 8.42448 6.14062 7.92188 6.14062 7.35938C6.14062 6.35938 6.49479 5.54948 7.20312 4.92969C7.67708 4.51302 8.38021 4.25781 9.3125 4.16406V3.49219H10.1406V4.16406C10.9583 4.24219 11.6068 4.48177 12.0859 4.88281C12.7005 5.39323 13.0703 6.09375 13.1953 6.98438L11.7422 7.20312C11.6589 6.65104 11.4844 6.22917 11.2188 5.9375C10.9583 5.64062 10.599 5.44531 10.1406 5.35156V9.40625C10.849 9.58333 11.3177 9.72135 11.5469 9.82031C11.9844 10.013 12.3411 10.2474 12.6172 10.5234C12.8932 10.7995 13.1042 11.1276 13.25 11.5078C13.401 11.888 13.4766 12.2995 13.4766 12.7422C13.4766 13.7161 13.1667 14.5286 12.5469 15.1797C11.9271 15.8307 11.125 16.1797 10.1406 16.2266V17.6484H9.3125ZM9.3125 5.33594C8.76562 5.41927 8.33333 5.63802 8.01562 5.99219C7.70312 6.34635 7.54688 6.76562 7.54688 7.25C7.54688 7.72917 7.67969 8.13021 7.94531 8.45312C8.21615 8.77604 8.67188 9.03385 9.3125 9.22656V5.33594ZM10.1406 15.0547C10.6875 14.987 11.138 14.75 11.4922 14.3438C11.8516 13.9375 12.0312 13.4349 12.0312 12.8359C12.0312 12.3255 11.9036 11.9167 11.6484 11.6094C11.3984 11.2969 10.8958 11.0182 10.1406 10.7734V15.0547ZM16.2109 19.3672H15.2031C16.7604 16.8672 17.5391 14.3646 17.5391 11.8594C17.5391 10.8802 17.4271 9.90885 17.2031 8.94531C17.026 8.16406 16.7786 7.41406 16.4609 6.69531C16.2578 6.22656 15.8385 5.44531 15.2031 4.35156H16.2109C17.1901 5.65885 17.9141 6.97135 18.3828 8.28906C18.7839 9.42448 18.9844 10.612 18.9844 11.8516C18.9844 13.2578 18.7135 14.6172 18.1719 15.9297C17.6354 17.2422 16.9818 18.388 16.2109 19.3672Z" fill="#848484"/>
</svg>
