<svg width="21" height="20" viewBox="0 0 21 20" fill="none" xmlns="http://www.w3.org/2000/svg">
<path d="M10.5 13.157L6.94233 9.59938L7.82052 8.69554L9.875 10.75V3.75H11.125V10.75L13.1794 8.69554L14.0576 9.59938L10.5 13.157ZM5.75642 16.25C5.33547 16.25 4.97917 16.1041 4.6875 15.8125C4.39583 15.5208 4.25 15.1645 4.25 14.7435V12.484H5.49998V14.7435C5.49998 14.8077 5.52669 14.8664 5.5801 14.9199C5.63353 14.9733 5.69231 15 5.75642 15H15.2435C15.3077 15 15.3664 14.9733 15.4199 14.9199C15.4733 14.8664 15.5 14.8077 15.5 14.7435V12.484H16.75V14.7435C16.75 15.1645 16.6041 15.5208 16.3125 15.8125C16.0208 16.1041 15.6645 16.25 15.2435 16.25H5.75642Z" fill="white"/>
</svg>
