<svg width="18" height="13" viewBox="0 0 18 13" fill="none" xmlns="http://www.w3.org/2000/svg">
<path d="M9.00106 9.98073C9.9453 9.98073 10.7473 9.65024 11.407 8.98927C12.0667 8.32829 12.3966 7.52567 12.3966 6.58142C12.3966 5.63718 12.0661 4.8352 11.4051 4.17548C10.7441 3.51576 9.94152 3.1859 8.99727 3.1859C8.05303 3.1859 7.25106 3.51638 6.59133 4.17735C5.93161 4.83834 5.60175 5.64096 5.60175 6.58521C5.60175 7.52945 5.93224 8.33142 6.59321 8.99115C7.25419 9.65087 8.05681 9.98073 9.00106 9.98073ZM8.99917 8.83331C8.37417 8.83331 7.84292 8.61456 7.40542 8.17706C6.96792 7.73956 6.74917 7.20831 6.74917 6.58331C6.74917 5.95831 6.96792 5.42706 7.40542 4.98956C7.84292 4.55206 8.37417 4.33331 8.99917 4.33331C9.62417 4.33331 10.1554 4.55206 10.5929 4.98956C11.0304 5.42706 11.2492 5.95831 11.2492 6.58331C11.2492 7.20831 11.0304 7.73956 10.5929 8.17706C10.1554 8.61456 9.62417 8.83331 8.99917 8.83331ZM9.00031 12.4166C7.08397 12.4166 5.33786 11.888 3.762 10.8309C2.18615 9.77374 1.0259 8.35788 0.28125 6.58331C1.0259 4.80874 2.18578 3.39288 3.76088 2.33573C5.33596 1.27858 7.08167 0.75 8.99802 0.75C10.9144 0.75 12.6605 1.27858 14.2363 2.33573C15.8122 3.39288 16.9724 4.80874 17.7171 6.58331C16.9724 8.35788 15.8126 9.77374 14.2375 10.8309C12.6624 11.888 10.9167 12.4166 9.00031 12.4166ZM8.99917 11.1666C10.5686 11.1666 12.0096 10.7535 13.3221 9.92706C14.6346 9.10067 15.6381 7.98609 16.3325 6.58331C15.6381 5.18054 14.6346 4.06595 13.3221 3.23956C12.0096 2.41317 10.5686 1.99998 8.99917 1.99998C7.42972 1.99998 5.98875 2.41317 4.67625 3.23956C3.36375 4.06595 2.36028 5.18054 1.66583 6.58331C2.36028 7.98609 3.36375 9.10067 4.67625 9.92706C5.98875 10.7535 7.42972 11.1666 8.99917 11.1666Z" fill="white"/>
</svg>
