<svg width="16" height="14" viewBox="0 0 16 14" fill="none" xmlns="http://www.w3.org/2000/svg">
<path d="M1.58845 13.25C1.1675 13.25 0.811198 13.1041 0.519531 12.8125C0.227865 12.5208 0.0820312 12.1645 0.0820312 11.7435V2.25642C0.0820312 1.83547 0.227865 1.47917 0.519531 1.1875C0.811198 0.895833 1.1675 0.75 1.58845 0.75H14.4089C14.8299 0.75 15.1862 0.895833 15.4778 1.1875C15.7695 1.47917 15.9153 1.83547 15.9153 2.25642V11.7435C15.9153 12.1645 15.7695 12.5208 15.4778 12.8125C15.1862 13.1041 14.8299 13.25 14.4089 13.25H1.58845ZM7.99868 7.46469L14.6653 3.20187L14.5371 1.99998L7.99868 6.16665L1.46022 1.99998L1.33201 3.20187L7.99868 7.46469Z" fill="white"/>
</svg>
