<svg width="16" height="16" viewBox="0 0 16 16" fill="none" xmlns="http://www.w3.org/2000/svg">
<path d="M14.2016 15.0831C12.6311 15.0831 11.0534 14.718 9.46843 13.9878C7.8835 13.2575 6.42597 12.2274 5.09584 10.8972C3.77107 9.56711 2.74356 8.11092 2.01332 6.52867C1.28309 4.94641 0.917969 3.37003 0.917969 1.79952C0.917969 1.54952 1.0013 1.33986 1.16797 1.17052C1.33464 1.00118 1.54297 0.916504 1.79297 0.916504H4.51089C4.72136 0.916504 4.90699 0.98515 5.06778 1.12244C5.22857 1.25973 5.33086 1.42934 5.37466 1.63125L5.85222 4.08315C5.88534 4.31072 5.8784 4.50623 5.83139 4.66969C5.78439 4.83315 5.69998 4.97043 5.57818 5.08155L3.65351 6.95494C3.96334 7.52225 4.31725 8.05884 4.71522 8.56471C5.11319 9.0706 5.54401 9.55378 6.00768 10.0143C6.46495 10.4715 6.95107 10.8962 7.46603 11.2883C7.98099 11.6804 8.53708 12.0452 9.1343 12.3828L11.0045 10.4966C11.1348 10.3609 11.2927 10.2659 11.4781 10.2114C11.6634 10.1569 11.856 10.1435 12.0558 10.1713L14.3698 10.6425C14.5803 10.698 14.7521 10.8054 14.8851 10.9646C15.0181 11.1238 15.0846 11.3043 15.0846 11.5063V14.2081C15.0846 14.4581 14.9999 14.6665 14.8306 14.8331C14.6612 14.9998 14.4516 15.0831 14.2016 15.0831Z" fill="white"/>
</svg>
