<svg width="16" height="15" viewBox="0 0 16 15" fill="none" xmlns="http://www.w3.org/2000/svg">
<path d="M12.5833 3.18592H3.41665V0.173126H12.5833V3.18592ZM12.8397 7.2564C13.0758 7.2564 13.2737 7.17654 13.4334 7.01681C13.5932 6.85709 13.673 6.65918 13.673 6.42306C13.673 6.18695 13.5932 5.98904 13.4334 5.82931C13.2737 5.66959 13.0758 5.58973 12.8397 5.58973C12.6036 5.58973 12.4057 5.66959 12.2459 5.82931C12.0862 5.98904 12.0064 6.18695 12.0064 6.42306C12.0064 6.65918 12.0862 6.85709 12.2459 7.01681C12.4057 7.17654 12.6036 7.2564 12.8397 7.2564ZM11.3333 12.8333V9.27563H4.66663V12.8333H11.3333ZM12.5833 14.0833H3.41665V10.75H0.32373V6.0064C0.32373 5.41613 0.525383 4.92135 0.928689 4.52204C1.33199 4.12275 1.82477 3.92311 2.40702 3.92311H13.5929C14.1832 3.92311 14.6779 4.12275 15.0773 4.52204C15.4765 4.92135 15.6762 5.41613 15.6762 6.0064V10.75H12.5833V14.0833Z" fill="white"/>
</svg>
