<svg width="40" height="40" viewBox="0 0 40 40" fill="none" xmlns="http://www.w3.org/2000/svg">
<g clip-path="url(#clip0_40000652_8560)">
<path d="M29.5 14.3077V25.6923C29.5 26.1974 29.325 26.625 28.975 26.975C28.625 27.325 28.1974 27.5 27.6923 27.5H12.3077C11.8026 27.5 11.375 27.325 11.025 26.975C10.675 26.625 10.5 26.1974 10.5 25.6923V14.3077C10.5 13.8026 10.675 13.375 11.025 13.025C11.375 12.675 11.8026 12.5 12.3077 12.5H27.6923C28.1974 12.5 28.625 12.675 28.975 13.025C29.325 13.375 29.5 13.8026 29.5 14.3077ZM12 16.4039H28V14.3077C28 14.2308 27.9679 14.1602 27.9038 14.0961C27.8397 14.032 27.7692 14 27.6923 14H12.3077C12.2308 14 12.1602 14.032 12.0961 14.0961C12.032 14.1602 12 14.2308 12 14.3077V16.4039ZM12 19.5961V25.6923C12 25.7692 12.032 25.8397 12.0961 25.9038C12.1602 25.9679 12.2308 26 12.3077 26H27.6923C27.7692 26 27.8397 25.9679 27.9038 25.9038C27.9679 25.8397 28 25.7692 28 25.6923V19.5961H12Z" fill="black"/>
</g>
<defs>
<clipPath id="clip0_40000652_8560">
<rect width="40" height="40" rx="20" fill="white"/>
</clipPath>
</defs>
</svg>
