<svg width="16" height="16" viewBox="0 0 16 16" fill="none" xmlns="http://www.w3.org/2000/svg">
<path d="M8.03806 15.5C5.94431 15.5 4.17088 14.7735 2.71776 13.3207C1.26464 11.8679 0.538086 10.0948 0.538086 8.0015C0.538086 5.90818 1.26464 4.13461 2.71776 2.68078C4.17088 1.22693 5.94431 0.5 8.03806 0.5C9.2073 0.5 10.3137 0.759941 11.3573 1.27982C12.4009 1.79969 13.2688 2.53335 13.9611 3.4808V0.5H15.4611V6.61533H9.34576V5.11538H13.2957C12.7688 4.14999 12.0381 3.38941 11.1034 2.83363C10.1688 2.27786 9.14703 1.99998 8.03806 1.99998C6.3714 1.99998 4.95473 2.58331 3.78806 3.74998C2.62139 4.91664 2.03806 6.33331 2.03806 7.99998C2.03806 9.66664 2.62139 11.0833 3.78806 12.25C4.95473 13.4166 6.3714 14 8.03806 14C9.32139 14 10.4797 13.6333 11.5131 12.9C12.5464 12.1666 13.2714 11.2 13.6881 9.99998H15.2688C14.8149 11.632 13.921 12.9567 12.5871 13.974C11.2531 14.9913 9.73676 15.5 8.03806 15.5Z" fill="black"/>
</svg>
