<svg width="20" height="20" viewBox="0 0 20 20" fill="none" xmlns="http://www.w3.org/2000/svg">
<path d="M9.99049 14.6794C10.2284 14.6794 10.4294 14.5972 10.5934 14.4329C10.7574 14.2686 10.8394 14.0675 10.8394 13.8296C10.8394 13.5916 10.7572 13.3907 10.5929 13.2267C10.4287 13.0627 10.2275 12.9807 9.98959 12.9807C9.75165 12.9807 9.55068 13.0628 9.3867 13.2271C9.2227 13.3914 9.1407 13.5925 9.1407 13.8305C9.1407 14.0684 9.22284 14.2694 9.38713 14.4334C9.55142 14.5974 9.75254 14.6794 9.99049 14.6794ZM9.4003 11.6954H10.5734C10.584 11.2851 10.6441 10.9574 10.7537 10.7122C10.8632 10.4671 11.1289 10.142 11.5509 9.73709C11.9174 9.37063 12.1981 9.03222 12.3931 8.72186C12.588 8.4115 12.6855 8.04497 12.6855 7.62229C12.6855 6.90503 12.4278 6.34474 11.9123 5.94142C11.3968 5.53811 10.7871 5.33646 10.083 5.33646C9.38749 5.33646 8.8119 5.52209 8.35624 5.89336C7.90058 6.26461 7.57554 6.70183 7.38109 7.20502L8.45157 7.6345C8.55307 7.35779 8.72668 7.0883 8.9724 6.82602C9.21814 6.56373 9.58299 6.43259 10.067 6.43259C10.5595 6.43259 10.9235 6.56747 11.1591 6.83725C11.3947 7.10702 11.5125 7.40376 11.5125 7.72748C11.5125 8.01059 11.4318 8.26967 11.2705 8.50471C11.1092 8.73975 10.9035 8.96679 10.6535 9.18582C10.1065 9.6794 9.76089 10.0731 9.61665 10.3669C9.47242 10.6607 9.4003 11.1035 9.4003 11.6954ZM10.001 17.9165C8.9061 17.9165 7.87691 17.7088 6.91347 17.2932C5.95001 16.8777 5.11194 16.3137 4.39926 15.6013C3.68656 14.889 3.12235 14.0513 2.70661 13.0882C2.29088 12.1252 2.08301 11.0962 2.08301 10.0013C2.08301 8.90635 2.29079 7.87715 2.70634 6.91371C3.1219 5.95025 3.68586 5.11218 4.39822 4.3995C5.11059 3.68681 5.94829 3.12259 6.91132 2.70686C7.87433 2.29112 8.90331 2.08325 9.99826 2.08325C11.0932 2.08325 12.1224 2.29103 13.0858 2.70659C14.0493 3.12214 14.8874 3.6861 15.6 4.39846C16.3127 5.11084 16.877 5.94854 17.2927 6.91157C17.7084 7.87458 17.9163 8.90356 17.9163 9.9985C17.9163 11.0934 17.7085 12.1226 17.293 13.0861C16.8774 14.0495 16.3135 14.8876 15.6011 15.6003C14.8887 16.313 14.051 16.8772 13.088 17.2929C12.125 17.7087 11.096 17.9165 10.001 17.9165Z" fill="black"/>
</svg>
