<svg width="16" height="16" viewBox="0 0 16 16" fill="none" xmlns="http://www.w3.org/2000/svg">
<path d="M7.99049 12.6794C8.22843 12.6794 8.4294 12.5973 8.5934 12.433C8.75739 12.2687 8.83938 12.0676 8.83938 11.8296C8.83938 11.5917 8.75724 11.3907 8.59295 11.2267C8.42865 11.0627 8.22754 10.9807 7.98959 10.9807C7.75165 10.9807 7.55068 11.0629 7.3867 11.2272C7.2227 11.3915 7.1407 11.5926 7.1407 11.8305C7.1407 12.0685 7.22284 12.2694 7.38713 12.4334C7.55142 12.5974 7.75254 12.6794 7.99049 12.6794ZM7.4003 9.69546H8.57336C8.58404 9.28521 8.64414 8.95749 8.75365 8.71229C8.86315 8.46711 9.12891 8.14206 9.55092 7.73715C9.91737 7.37069 10.1981 7.03228 10.3931 6.72192C10.588 6.41156 10.6855 6.04504 10.6855 5.62236C10.6855 4.90509 10.4278 4.3448 9.91232 3.94148C9.39683 3.53817 8.78706 3.33652 8.08299 3.33652C7.38749 3.33652 6.8119 3.52215 6.35624 3.89342C5.90058 4.26467 5.57554 4.70189 5.38109 5.20508L6.45157 5.63456C6.55307 5.35786 6.72668 5.08836 6.9724 4.82608C7.21814 4.56379 7.58299 4.43265 8.06697 4.43265C8.55949 4.43265 8.92354 4.56754 9.15911 4.83731C9.3947 5.10708 9.51249 5.40382 9.51249 5.72754C9.51249 6.01065 9.43182 6.26973 9.27049 6.50477C9.10917 6.73981 8.90351 6.96685 8.65351 7.18588C8.10651 7.67946 7.76089 8.07315 7.61665 8.36696C7.47242 8.66076 7.4003 9.1036 7.4003 9.69546ZM8.00105 15.9166C6.9061 15.9166 5.87691 15.7088 4.91347 15.2933C3.95001 14.8777 3.11194 14.3138 2.39926 13.6014C1.68656 12.889 1.12235 12.0513 0.706612 11.0883C0.290876 10.1253 0.0830078 9.0963 0.0830078 8.00136C0.0830078 6.90641 0.290786 5.87722 0.706341 4.91377C1.1219 3.95031 1.68586 3.11224 2.39822 2.39956C3.11059 1.68687 3.94829 1.12265 4.91132 0.706918C5.87433 0.291182 6.90331 0.083313 7.99826 0.083313C9.0932 0.083313 10.1224 0.291092 11.0858 0.706647C12.0493 1.1222 12.8874 1.68616 13.6 2.39852C14.3127 3.1109 14.877 3.9486 15.2927 4.91163C15.7084 5.87464 15.9163 6.90362 15.9163 7.99856C15.9163 9.09351 15.7085 10.1227 15.293 11.0861C14.8774 12.0496 14.3135 12.8877 13.6011 13.6004C12.8887 14.313 12.051 14.8773 11.088 15.293C10.125 15.7087 9.09599 15.9166 8.00105 15.9166ZM7.99965 14.6666C9.86076 14.6666 11.4372 14.0208 12.7288 12.7291C14.0205 11.4375 14.6663 9.86107 14.6663 7.99996C14.6663 6.13885 14.0205 4.56246 12.7288 3.27079C11.4372 1.97913 9.86076 1.33329 7.99965 1.33329C6.13854 1.33329 4.56215 1.97913 3.27049 3.27079C1.97882 4.56246 1.33299 6.13885 1.33299 7.99996C1.33299 9.86107 1.97882 11.4375 3.27049 12.7291C4.56215 14.0208 6.13854 14.6666 7.99965 14.6666Z" fill="black"/>
</svg>
