<svg width="12" height="12" viewBox="0 0 12 12" fill="none" xmlns="http://www.w3.org/2000/svg">
<path d="M0.933594 10.2499L6.00087 1.5L11.0681 10.2499H0.933594ZM2.22587 9.49996H9.77587L6.00087 2.99996L2.22587 9.49996ZM6.00087 8.9038C6.11529 8.9038 6.21121 8.8651 6.28861 8.7877C6.36601 8.7103 6.40471 8.61439 6.40471 8.49996C6.40471 8.38554 6.36601 8.28963 6.28861 8.21223C6.21121 8.13483 6.11529 8.09613 6.00087 8.09613C5.88644 8.09613 5.79053 8.13483 5.71313 8.21223C5.63573 8.28963 5.59703 8.38554 5.59703 8.49996C5.59703 8.61439 5.63573 8.7103 5.71313 8.7877C5.79053 8.8651 5.88644 8.9038 6.00087 8.9038ZM5.62588 7.59613H6.37586V5.09613H5.62588V7.59613Z" fill="black"/>
</svg>
